/* XPM */
static char * ipmsg16x16_xpm[] = {
"16 16 28 1",
" 	c #FFFFFF",
".	c #FFFF00",
"+	c #FFBF00",
"@	c #FF7F00",
"#	c #FF3F00",
"$	c #FF0000",
"%	c #DF2020",
"&	c #BFBF3F",
"*	c #BF7F3F",
"=	c #BF4040",
"-	c #BF003F",
";	c #BF0000",
">	c #9F9F60",
",	c #9F6060",
"'	c #9F2020",
")	c #808080",
"!	c #7F7F7F",
"~	c #7F3F7F",
"{	c #7F007F",
"]	c #7F0000",
"^	c #606060",
"/	c #5F2020",
"(	c #404040",
"_	c #3F3FBF",
":	c #3F00BF",
"<	c #202020",
"[	c #0000FF",
"}	c #000000",
"$@@@-{{{{{{{{{{-",
"@...+:[[[[[[[[[{",
"@....~[[_{[[*$:{",
"@....~[[@${_#${{",
"@...+:[[@${*$$:{",
"{*@*{[[[*$-$$-[{",
"{[[[[[[[[$$$$[[{",
"{[[[[[_!+$$$:[[{",
"{[[[_*#$$$$-[[[{",
"{[[_*$$${{$$[[[{",
"{[[&#$$:[[$$:[[{",
"=))+$$=)))@$$=)=",
"=))@$$))))>%$,)=",
"=)),]/()))))<}(=",
"=)))^}}}<((((}}]",
"%=====']]]]]]]];"};
