/* XPM */
static char * ipmsg32x32_xpm[] = {
"32 32 6 1",
" 	c #FFFFFF",
".	c #FFFF00",
"+	c #FF0000",
"@	c #848484",
"#	c #0000FF",
"$	c #000000",
"++++++++++++++++++++++++++++++++",
"++......+######################+",
"+........+#####################+",
"+.........+####################+",
"+.........+##############.++###+",
"+..........######.++####.++++##+",
"+..........#####.++++###.++++##+",
"+.........+#####.++++##.+++++##+",
"+.........+#####.++++##.+++++##+",
"+........+######.++++#.+++++###+",
"+#......++######.++++#++++++###+",
"+##++++##########.+++++++++####+",
"+#################++++++++#####+",
"+#################++++++++#####+",
"+###############..+++++++######+",
"+############....+++++++#######+",
"+##########..++++++++++########+",
"+########..+++++++++++++#######+",
"+########.++++++++++++++#######+",
"+######..+++++++####++++#######+",
"+######..++++++#####++++#######+",
"+#####..++++++######+++++######+",
"+@@@@@..+++++@@@@@@@.++++++@@@@+",
"+@@@@@.++++++@@@@@@@.++++++@@@@+",
"+@@@@@.+++++@@@@@@@@@.+++++@@@@+",
"+@@@@@.+++++@@@@@@@@@@@+++@@@@@+",
"+@@@@@@++++@@@@@@@@@@@@@$$$$@@@+",
"+@@@@@@@$$$$$$@@@@@@@@@@@$$$$$@+",
"+@@@@@@@@$$$$$$$$@@@@@@@@@$$$$$+",
"+@@@@@@@@@$$$$$$$$$$$$$$$$$$$$$+",
"+@@@@@@@@@@@@$$$$$$$$$$$$$$$$$$+",
"++++++++++++++++++++++++++++++++"};
